<svg width="34" height="41" viewBox="0 0 34 41" fill="none" xmlns="http://www.w3.org/2000/svg">
<path d="M32.0563 13.9783C31.821 14.1628 27.6667 16.5288 27.6667 21.7896C27.6667 27.8746 32.9529 30.0273 33.1111 30.0806C33.0868 30.2118 32.2713 33.0288 30.324 35.8991C28.5876 38.4249 26.7741 40.9467 24.0154 40.9467C21.2567 40.9467 20.5467 39.327 17.362 39.327C14.2584 39.327 13.1549 41 10.6315 41C8.10803 41 6.3473 38.6628 4.32288 35.7925C1.97795 32.4219 0.0833435 27.1857 0.0833435 22.216C0.0833435 14.2448 5.21135 10.0173 10.2582 10.0173C12.9399 10.0173 15.1753 11.7969 16.8589 11.7969C18.4614 11.7969 20.9605 9.91069 24.0113 9.91069C25.1676 9.91069 29.3219 10.0173 32.0563 13.9783ZM22.563 6.53605C23.8247 5.023 24.7173 2.92359 24.7173 0.824182C24.7173 0.533053 24.6929 0.237824 24.6402 0C22.5873 0.0779078 20.1451 1.38184 18.6724 3.10811C17.5161 4.43664 16.437 6.53605 16.437 8.66417C16.437 8.984 16.4897 9.30383 16.5141 9.40634C16.6439 9.43094 16.8549 9.45965 17.0658 9.45965C18.9077 9.45965 21.2242 8.21312 22.563 6.53605Z" fill="#42C83C"/>
</svg>
