<svg width="32" height="34" viewBox="0 0 32 34" fill="none" xmlns="http://www.w3.org/2000/svg">
<path d="M7.1574 14.2434C8.4249 10.4026 12.0343 7.64426 16.3094 7.64426C18.6076 7.64426 20.6833 8.45973 22.3143 9.79414L27.0588 5.04958C24.1676 2.52904 20.4609 0.972229 16.3094 0.972229C9.88089 0.972229 4.34613 4.63953 1.68531 10.0104L7.1574 14.2434Z" fill="#42C83C"/>
<path d="M21.8014 25.4531C20.3202 26.4095 18.438 26.9187 16.3095 26.9187C12.0507 26.9187 8.45264 24.1813 7.17217 20.3636L1.68199 24.5322C4.33951 29.9124 9.87412 33.5907 16.3095 33.5907C20.2956 33.5907 24.1045 32.1737 26.9571 29.5128L21.8014 25.4531Z" fill="#42C83C"/>
<path d="M26.957 29.5129C29.9402 26.7301 31.8775 22.5869 31.8775 17.2814C31.8775 16.3176 31.7292 15.2798 31.5068 14.316H16.3094V20.6174H25.0572C24.6255 22.7364 23.4669 24.3776 21.8012 25.4532L26.957 29.5129Z" fill="#42C83C"/>
<path d="M7.17204 20.3642C6.84768 19.3971 6.67203 18.3607 6.67203 17.2819C6.67203 16.2194 6.84239 15.1981 7.15738 14.2436L1.68529 10.0107C0.593373 12.1994 0 14.6661 0 17.2819C0 19.8908 0.604509 22.3516 1.68186 24.5328L7.17204 20.3642Z" fill="#42C83C"/>
</svg>
