<svg width="10" height="9" viewBox="0 0 10 9" fill="none" xmlns="http://www.w3.org/2000/svg">
<path d="M8.22691 2.86306C8.72508 3.72592 8.97417 4.15735 8.99759 4.62914C9.0008 4.69375 9.0008 4.75848 8.99759 4.8231C8.97417 5.29489 8.72508 5.72632 8.22691 6.58918C7.72874 7.45204 7.47965 7.88347 7.08278 8.13965C7.02843 8.17473 6.97237 8.2071 6.91481 8.23663C6.49452 8.45223 5.99635 8.45223 5 8.45223C4.00365 8.45223 3.50548 8.45223 3.08519 8.23663C3.02763 8.2071 2.97157 8.17473 2.91722 8.13965C2.52035 7.88347 2.27126 7.45204 1.77309 6.58918C1.27492 5.72632 1.02583 5.29488 1.00241 4.8231C0.999198 4.75848 0.999198 4.69375 1.00241 4.62914C1.02583 4.15735 1.27492 3.72592 1.77309 2.86306C2.27126 2.0002 2.52035 1.56877 2.91722 1.31259C2.97157 1.2775 3.02763 1.24514 3.08519 1.21561C3.50548 1 4.00365 1 5 1C5.99635 1 6.49452 1 6.91481 1.21561C6.97237 1.24514 7.02843 1.2775 7.08278 1.31259C7.47965 1.56877 7.72874 2.0002 8.22691 2.86306Z" stroke="#42C83C" stroke-width="0.502895"/>
<path d="M4.22399 4.37561C4.30342 4.18272 4.4566 4.02954 4.6495 3.95011L5.69653 3.51898C6.01803 3.3866 6.33952 3.70809 6.20714 4.02958L5.77601 5.07662C5.69658 5.26952 5.5434 5.4227 5.3505 5.50212L4.30347 5.93326C3.98197 6.06564 3.66048 5.74414 3.79286 5.42265L4.22399 4.37561Z" stroke="#42C83C" stroke-width="0.502895"/>
</svg>
