<?xml version="1.0" standalone="no"?>
<!DOCTYPE svg PUBLIC "-//W3C//DTD SVG 20010904//EN"
 "http://www.w3.org/TR/2001/REC-SVG-20010904/DTD/svg10.dtd">
<svg version="1.0" xmlns="http://www.w3.org/2000/svg"
 width="512.000000pt" height="512.000000pt" viewBox="0 0 512.000000 512.000000"
 preserveAspectRatio="xMidYMid meet">
<metadata>
Created by potrace 1.16, written by Peter Selinger 2001-2019
</metadata>
<g transform="translate(0.000000,512.000000) scale(0.100000,-0.100000)"
fill="#EF4444" stroke="none">
<path d="M2448 5105 c-87 -32 -153 -96 -195 -190 -17 -37 -18 -103 -21 -1035
-2 -726 0 -1010 8 -1050 22 -102 92 -189 189 -234 65 -30 197 -30 263 1 66 30
133 96 165 162 l28 56 0 1030 0 1030 -33 67 c-58 118 -159 179 -295 177 -39 0
-89 -7 -109 -14z"/>
<path d="M1587 4340 c-26 -5 -82 -27 -124 -51 -648 -355 -1074 -983 -1174
-1729 -19 -140 -16 -451 5 -590 76 -505 298 -953 645 -1300 189 -190 371 -320
604 -434 215 -105 409 -168 647 -211 146 -26 491 -32 657 -11 504 64 965 290
1328 651 360 357 582 813 656 1345 18 128 15 443 -4 581 -73 501 -282 928
-628 1284 -225 231 -531 442 -676 465 -105 17 -230 -25 -295 -99 -86 -98 -110
-251 -56 -361 35 -72 84 -117 190 -178 356 -203 633 -547 752 -932 59 -191 70
-271 71 -485 0 -211 -18 -332 -76 -508 -46 -142 -148 -338 -238 -457 -469
-623 -1267 -836 -1972 -526 -467 206 -831 654 -933 1148 -43 207 -45 459 -7
648 98 483 392 885 823 1124 67 37 135 101 161 152 25 51 40 132 33 187 -24
190 -199 319 -389 287z"/>
</g>
</svg>
