<svg width="300" height="300" viewBox="0 0 90 169" fill="none" xmlns="http://www.w3.org/2000/svg">
<path fill-rule="evenodd" clip-rule="evenodd" d="M1.00107 167.275C9.02542 166.354 19.5397 164.466 27.6333 157.423C30.165 155.221 32.4554 152.518 34.3583 149.19C36.2277 147.486 37.9558 145.497 39.4813 143.169C39.6699 143.013 39.8572 142.854 40.0433 142.692C41.4818 141.44 42.8424 140.027 44.0984 138.429C44.8468 137.885 45.5797 137.304 46.2938 136.683C46.5055 136.499 46.7155 136.311 46.9237 136.12C54.4105 135.042 63.3175 132.822 70.3809 126.676C78.4905 119.62 84.124 107.432 82.4798 86.0242C80.5646 61.0869 71.2575 48.0507 64.1094 38.0386C63.4464 37.11 62.8019 36.2073 62.1837 35.3235C58.5415 30.1175 55.8466 25.6176 55.5486 20.3366C55.2507 15.0579 57.3465 8.93341 63.4603 0.500153L63.0034 0.132828C56.8615 8.60499 54.679 14.858 54.988 20.3335C55.2968 25.8068 58.0936 30.4379 61.736 35.6443C62.3552 36.5293 63 37.4325 63.6627 38.3608L63.6637 38.3622C70.7984 48.3562 80.0182 61.271 81.92 86.0334C83.5538 107.307 77.9548 119.303 70.0038 126.221C63.3131 132.043 54.9246 134.299 47.6643 135.417L47.7481 135.334C48.0403 135.161 48.3309 134.982 48.6196 134.798C54.1281 133.377 59.8176 131.01 64.6456 126.809C72.7553 119.753 78.3887 107.565 76.7445 86.1574C74.8293 61.2201 65.5222 48.1839 58.3741 38.1718L58.3727 38.1698C57.7102 37.2418 57.0662 36.3398 56.4484 35.4567C52.8063 30.2506 50.1113 25.7507 49.8133 20.4697C49.5155 15.191 51.6113 9.06656 57.725 0.633289L57.2681 0.265966C51.1262 8.73813 48.9438 14.9911 49.2527 20.4667C49.5615 25.9399 52.3584 30.571 56.0008 35.7774C56.6203 36.6629 57.2653 37.5665 57.9284 38.4954C65.0631 48.4893 74.2829 61.4042 76.1847 86.1666C77.8186 107.44 72.2195 119.436 64.2685 126.354C60.3101 129.798 55.7575 131.995 51.1957 133.446C53.8096 132.173 56.34 130.573 58.6698 128.545C66.7795 121.489 72.4129 109.301 70.7687 87.8939C68.8535 62.9566 59.5464 49.9204 52.3984 39.9083L52.3978 39.9076L52.3955 39.9043C51.7334 38.977 51.09 38.0757 50.4726 37.1933C46.8305 31.9872 44.1355 27.4873 43.8375 22.2063C43.5397 16.9276 45.6355 10.8031 51.7492 2.36984L51.2923 2.00252C45.1504 10.4747 42.968 16.7277 43.2769 22.2032C43.5857 27.6765 46.3826 32.3075 50.025 37.514C50.6445 38.3995 51.2895 39.3031 51.9526 40.2319C59.0873 50.2259 68.3071 63.1407 70.2089 87.9031C71.8428 109.176 66.2437 121.173 58.2927 128.091C56.2797 129.842 54.1131 131.271 51.8696 132.443C52.0897 132.262 52.3082 132.077 52.5249 131.889C60.6345 124.832 66.2679 112.645 64.6238 91.237C62.7086 66.2997 53.4015 53.2635 46.2534 43.2514L46.252 43.2494C45.5894 42.3214 44.9455 41.4194 44.3277 40.5363C40.6855 35.3303 37.9906 30.8304 37.6926 25.5494C37.3947 20.2707 39.4905 14.1462 45.6043 5.71291L45.1474 5.34558C39.0055 13.8178 36.823 20.0708 37.132 25.5463C37.4408 31.0195 40.2376 35.6506 43.88 40.857C44.4995 41.7426 45.1446 42.6462 45.8077 43.575C52.9424 53.569 62.1622 66.4838 64.064 91.2462C65.6978 112.519 60.0988 124.516 52.1478 131.434C51.2602 132.206 50.3426 132.916 49.4018 133.568C55.7795 126.204 59.8171 114.577 58.3927 96.0314C56.4775 71.0941 47.1704 58.0579 40.0223 48.0458L40.0219 48.0453L40.0187 48.0407L40.018 48.0397L40.0176 48.0391C39.3562 47.1128 38.7134 46.2123 38.0966 45.3307C34.4545 40.1247 31.7595 35.6248 31.4615 30.3438C31.1637 25.065 33.2595 18.9406 39.3732 10.5073L38.9163 10.14C32.7744 18.6121 30.592 24.8652 30.9009 30.3407C31.2097 35.8139 34.0066 40.445 37.649 45.6514C38.2685 46.537 38.9135 47.4406 39.5766 48.3694C46.7113 58.3634 55.9311 71.2782 57.8329 96.0406C59.3158 115.348 54.8409 127.013 48.0572 134.177C47.6772 134.326 47.2963 134.469 46.9147 134.607C46.8256 134.628 46.7366 134.648 46.6476 134.668C50.9165 127.325 53.2838 116.905 52.1422 102.04C50.2269 77.1029 40.9199 64.0667 33.7718 54.0546L33.7703 54.0526C33.1078 53.1246 32.4639 52.2226 31.846 51.3395C28.2039 46.1335 25.5089 41.6335 25.211 36.3525C24.9131 31.0738 27.0089 24.9494 33.1226 16.5161L32.6657 16.1488C26.5238 24.6209 24.3414 30.8739 24.6504 36.3495C24.9592 41.8227 27.756 46.4538 31.3984 51.6602C32.0163 52.5435 32.6597 53.4447 33.321 54.371L33.3223 54.3729L33.3249 54.3765L33.3261 54.3782C40.4607 64.3721 49.6806 77.2869 51.5824 102.049C52.7425 117.155 50.2558 127.583 45.8697 134.837C45.0097 135.018 44.1578 135.179 43.3181 135.324C45.677 128.631 46.7611 120.05 45.9142 109.022C43.999 84.085 34.6919 71.0489 27.5438 61.0368L27.5434 61.0362L27.5402 61.0317L27.5394 61.0306L27.539 61.03C26.8777 60.1037 26.2348 59.2033 25.6181 58.3217C21.9759 53.1156 19.281 48.6157 18.983 43.3347C18.6851 38.056 20.7809 31.9315 26.8946 23.4983L26.4378 23.1309C20.2958 31.6031 18.1134 37.8561 18.4224 43.3317C18.7312 48.8049 21.528 53.436 25.1704 58.6424C25.7899 59.5279 26.435 60.4315 27.0981 61.3603C34.2328 71.3543 43.4526 84.2691 45.3544 109.032C46.2104 120.177 45.081 128.776 42.6681 135.433C41.4121 135.638 40.1865 135.807 39.0053 135.953C39.9948 130.562 40.3047 124.226 39.7322 116.772C37.8169 91.8347 28.5099 78.7985 21.3618 68.7864C20.6988 67.8577 20.0543 66.955 19.4361 66.0713C15.7939 60.8653 13.0989 56.3653 12.801 51.0843C12.5031 45.8056 14.5989 39.6812 20.7126 31.2479L20.2558 30.8806C14.1138 39.3527 11.9314 45.6057 12.2404 51.0813C12.5492 56.5545 15.346 61.1856 18.9884 66.392C19.6063 67.2753 20.2497 68.1765 20.911 69.1029L20.9123 69.1047L20.9149 69.1083L20.9161 69.11C28.0507 79.104 37.2706 92.0188 39.1724 116.781C39.7491 124.29 39.4246 130.643 38.4138 136.025C38.2471 136.044 38.0814 136.064 37.9166 136.083L38.0134 136.66L38.2968 136.628L38.2736 136.743L38.2416 136.9C36.0449 137.306 33.9207 137.592 31.9408 137.819L32.0376 138.397C33.9432 138.178 35.9891 137.905 38.1098 137.521C38.0062 137.994 37.8971 138.459 37.7827 138.917C33.5971 140.124 29.4504 140.743 25.7959 141.162L25.8927 141.74C29.4521 141.331 33.5015 140.732 37.6121 139.578C37.4109 140.335 37.1947 141.07 36.9644 141.785C31.0426 144.346 24.799 145.356 19.5648 145.957L19.6616 146.534C24.7608 145.949 30.8655 144.973 36.7155 142.532C36.4005 143.45 36.0615 144.331 35.7005 145.178C28.4582 149.742 20.0504 151.192 13.3143 151.965L13.4111 152.543C19.9341 151.794 28.1026 150.406 35.2786 146.13C34.8496 147.063 34.3928 147.952 33.9109 148.799C33.7543 148.941 33.5967 149.081 33.4382 149.219C25.4711 156.151 15.0966 158.028 7.0863 158.948L7.18307 159.525C14.9175 158.637 24.9653 156.851 32.9289 150.417C31.2575 152.999 29.3374 155.158 27.2562 156.969C19.2891 163.901 8.91462 165.777 0.90429 166.697L1.00107 167.275ZM43.7023 136.25C43.4329 136.325 43.1638 136.398 42.8951 136.469C42.7934 136.732 42.6897 136.992 42.5839 137.249C43.1872 136.999 43.7876 136.735 44.3838 136.453C44.1704 136.478 43.9587 136.503 43.7487 136.527L43.7023 136.25ZM38.8909 136.557C39.7549 136.452 40.6445 136.334 41.5541 136.2C40.6437 136.418 39.7393 136.612 38.8457 136.786C38.8609 136.709 38.876 136.633 38.8909 136.557ZM38.717 137.408C38.6218 137.855 38.5216 138.296 38.4168 138.729C39.5562 138.385 40.6968 137.995 41.8295 137.552C41.9577 137.254 42.0832 136.952 42.2058 136.646C41.0299 136.939 39.8636 137.19 38.717 137.408ZM46.1481 135.499L46.0897 135.593C46.2103 135.528 46.3307 135.463 46.4508 135.396C46.3499 135.431 46.249 135.465 46.1481 135.499ZM45.4349 136.599L45.5542 136.539L45.4662 136.613L45.372 136.691L45.4349 136.599ZM42.2574 138.018C42.9601 137.74 43.6598 137.441 44.3545 137.119C44.139 137.415 43.9201 137.705 43.6978 137.989C43.0225 138.478 42.3343 138.936 41.6358 139.365C41.8493 138.926 42.0566 138.477 42.2574 138.018ZM38.2511 139.394C39.331 139.076 40.4137 138.718 41.4913 138.314C41.2402 138.862 40.9796 139.396 40.7099 139.915C39.7108 140.487 38.6931 141.005 37.6641 141.474C37.8723 140.799 38.0682 140.106 38.2511 139.394ZM37.4236 142.229C37.1525 143.054 36.8626 143.851 36.5549 144.621C37.4073 144.047 38.2415 143.427 39.0527 142.757C39.4449 142.155 39.8236 141.531 40.1877 140.882C39.2775 141.372 38.3544 141.82 37.4236 142.229ZM41.1372 140.352C40.9404 140.726 40.7389 141.094 40.5328 141.454C41.1404 140.883 41.7326 140.281 42.3069 139.644C41.9201 139.889 41.5301 140.124 41.1372 140.352ZM36.1515 145.593C36.7473 145.213 37.3352 144.813 37.9139 144.39C37.0793 145.51 36.1946 146.541 35.2687 147.49C35.5756 146.877 35.8701 146.245 36.1515 145.593ZM75.8443 127.96C67.7507 135.002 57.2365 136.89 49.2121 137.811L49.1153 137.233C57.1257 136.314 67.5002 134.437 75.4672 127.505C83.4182 120.587 89.0173 108.59 87.3834 87.3173C85.4816 62.5549 76.2618 49.6401 69.1271 39.6461L69.124 39.6417L69.1235 39.6411L69.1204 39.6368C68.4597 38.7112 67.8169 37.8107 67.1994 36.9281C63.5571 31.7217 60.7602 27.0906 60.4514 21.6174C60.1424 16.1419 62.3249 9.88886 68.4668 1.41669L68.9237 1.78402C62.81 10.2173 60.7142 16.3418 61.012 21.6205C61.31 26.9015 64.005 31.4014 67.6471 36.6074C68.2638 37.4889 68.9065 38.3892 69.5678 39.3155L69.5723 39.3217L69.5728 39.3225C76.7209 49.3346 86.028 62.3708 87.9432 87.3081C89.5874 108.716 83.954 120.903 75.8443 127.96ZM54.4227 140.207C62.447 139.285 72.9613 137.397 81.0549 130.355C89.1645 123.299 94.7979 111.111 93.1538 89.7037C91.2386 64.7664 81.9315 51.7302 74.7834 41.7181C74.1204 40.7894 73.4759 39.8868 72.8577 39.003C69.2155 33.797 66.5206 29.2971 66.2226 24.0161C65.9247 18.7374 68.0205 12.6129 74.1343 4.17962L73.6774 3.8123C67.5354 12.2845 65.353 18.5375 65.662 24.013C65.9708 29.4863 68.7676 34.1173 72.41 39.3238C73.0286 40.208 73.6728 41.1103 74.3348 42.0377L74.3376 42.0416L74.3377 42.0417C81.4724 52.0357 90.6922 64.9505 92.594 89.7129C94.2278 110.986 88.6288 122.982 80.6778 129.901C72.7107 136.833 62.3362 138.709 54.3259 139.629L54.4227 140.207ZM86.068 133.53C77.9745 140.572 67.4602 142.46 59.4358 143.381L59.339 142.803C67.3494 141.884 77.7239 140.007 85.6909 133.075C93.6419 126.157 99.241 114.16 97.6071 92.8872C95.7053 68.1248 86.4855 55.21 79.3508 45.216L79.3486 45.2129L79.3471 45.2108C78.6853 44.2838 78.0415 43.3819 77.4232 42.498C73.7808 37.2916 70.9839 32.6605 70.6751 27.1873C70.3662 21.7118 72.5486 15.4588 78.6905 6.98658L79.1474 7.3539C73.0337 15.7872 70.9379 21.9117 71.2357 27.1904C71.5337 32.4714 74.2287 36.9713 77.8708 42.1773C78.4882 43.0598 79.1316 43.9611 79.7937 44.8884L79.796 44.8916L79.7966 44.8924C86.9446 54.9045 96.2517 67.9407 98.1669 92.878C99.8111 114.286 94.1777 126.473 86.068 133.53ZM64.3194 147.031C72.3437 146.109 82.858 144.222 90.9516 137.179C99.0612 130.123 104.695 117.935 103.05 96.5278C101.135 71.5905 91.8282 58.5544 84.6801 48.5423L84.6795 48.5415L84.6772 48.5382C84.0152 47.6109 83.3717 46.7096 82.7544 45.8272C79.1122 40.6211 76.4172 36.1212 76.1193 30.8402C75.8214 25.5615 77.9172 19.437 84.0309 11.0038L83.574 10.6364C77.4321 19.1086 75.2497 25.3616 75.5587 30.8372C75.8675 36.3104 78.6643 40.9415 82.3067 46.1479C82.9249 47.0316 83.5686 47.9333 84.2302 48.8601L84.2312 48.8615L84.234 48.8654L84.2341 48.8655L84.2342 48.8656L84.2343 48.8657L84.2344 48.8658C91.3691 58.8598 100.589 71.7746 102.491 96.5371C104.125 117.81 98.5255 129.807 90.5745 136.725C82.6074 143.657 72.2329 145.533 64.2226 146.453L64.3194 147.031ZM95.7702 141.06C87.6766 148.102 77.1623 149.99 69.1379 150.911L69.0412 150.334C77.0515 149.414 87.426 147.537 95.3931 140.605C103.344 133.687 108.943 121.691 107.309 100.417C105.407 75.655 96.1876 62.7402 89.053 52.7462L89.0507 52.7431L89.047 52.7379L89.0438 52.7333C88.3839 51.809 87.7419 50.9097 87.1253 50.0283C83.4829 44.8219 80.6861 40.1908 80.3772 34.7176C80.0683 29.242 82.2507 22.989 88.3926 14.5168L88.8495 14.8842C82.7358 23.3174 80.64 29.4419 80.9378 34.7206C81.2358 40.0016 83.9308 44.5015 87.5729 49.7076C88.191 50.5911 88.8353 51.4935 89.4981 52.4219L89.4987 52.4227C96.6467 62.4348 105.954 75.4709 107.869 100.408C109.513 121.816 103.88 134.004 95.7702 141.06ZM73.9449 154.829C81.9692 153.908 92.4835 152.02 100.577 144.978C108.687 137.922 114.32 125.734 112.676 104.326C110.761 79.3891 101.454 66.3529 94.3056 56.3408L94.3046 56.3395L94.2993 56.332L94.2955 56.3267C93.636 55.403 92.995 54.505 92.3799 53.6257C88.7377 48.4197 86.0427 43.9198 85.7448 38.6388C85.4469 33.3601 87.5427 27.2356 93.6565 18.8023L93.1996 18.435C87.0576 26.9072 84.8752 33.1602 85.1842 38.6357C85.493 44.109 88.2898 48.7401 91.9322 53.9465C92.5517 54.832 93.1968 55.7356 93.8599 56.6644C100.995 66.6584 110.214 79.5732 112.116 104.336C113.75 125.609 108.151 137.605 100.2 144.523C92.2329 151.455 81.8584 153.332 73.8481 154.252L73.9449 154.829ZM105.415 148.792C97.3212 155.834 86.8069 157.722 78.7826 158.644L78.6858 158.066C86.6962 157.146 97.0707 155.27 105.038 148.338C112.989 141.419 118.588 129.423 116.954 108.15C115.052 83.3875 105.832 70.4727 98.6976 60.4787C98.0345 59.5499 97.3894 58.6463 96.7699 57.7607C93.1276 52.5543 90.3307 47.9232 90.0219 42.45C89.7129 36.9745 91.8954 30.7215 98.0373 22.2493L98.4942 22.6166C92.3805 31.0499 90.2847 37.1744 90.5825 42.4531C90.8805 47.7341 93.5755 52.234 97.2176 57.44C97.8355 58.3233 98.4796 59.2255 99.1423 60.1537L99.1433 60.1551C106.291 70.1672 115.598 83.2034 117.514 108.141C119.158 129.548 113.524 141.736 105.415 148.792ZM83.6793 162.247C91.7036 161.325 102.218 159.437 110.312 152.395C118.421 145.339 124.055 133.151 122.41 111.744C120.495 86.8064 111.188 73.7702 104.04 63.7581C103.377 62.8295 102.733 61.9268 102.114 61.0431C98.4722 55.837 95.7772 51.3371 95.4792 46.0561C95.1813 40.7774 97.2771 34.6529 103.391 26.2196L102.934 25.8523C96.7921 34.3245 94.6096 40.5775 94.9186 46.053C95.2274 51.5263 98.0242 56.1574 101.667 61.3638C102.285 62.248 102.929 63.1502 103.591 64.0775L103.593 64.0795L103.594 64.0817C110.729 74.0757 119.949 86.9905 121.851 111.753C123.484 133.026 117.885 145.023 109.934 151.941C101.967 158.873 91.5928 160.749 83.5825 161.669L83.6793 162.247ZM115.286 155.712C107.193 162.754 96.6785 164.642 88.6541 165.563L88.5573 164.986C96.5677 164.066 106.942 162.189 114.909 155.257C122.86 148.339 128.459 136.343 126.825 115.07C124.924 90.3071 115.704 77.3923 108.569 67.3984C107.906 66.4695 107.261 65.5659 106.641 64.6804C102.999 59.474 100.202 54.8429 99.8934 49.3697C99.5845 43.8941 101.767 37.6411 107.909 29.1689L108.366 29.5363C102.252 37.9696 100.156 44.094 100.454 49.3727C100.752 54.6537 103.447 59.1536 107.089 64.3597C107.707 65.2434 108.352 66.1461 109.015 67.0748C116.163 77.0869 125.47 90.1231 127.385 115.06C129.029 136.468 123.396 148.656 115.286 155.712ZM93.7186 168.542C101.743 167.621 112.257 165.733 120.351 158.691C128.46 151.635 134.094 139.447 132.45 118.039C130.534 93.102 121.227 80.0658 114.079 70.0537C113.416 69.125 112.772 68.2223 112.154 67.3386C108.511 62.1326 105.816 57.6327 105.518 52.3517C105.221 47.073 107.316 40.9485 113.43 32.5152L112.973 32.1479C106.831 40.62 104.649 46.8731 104.958 52.3486C105.267 57.8218 108.064 62.4529 111.706 67.6593C112.325 68.5445 112.97 69.4478 113.633 70.3763L113.634 70.3773C120.768 80.3713 129.988 93.2861 131.89 118.048C133.524 139.322 127.925 151.318 119.974 158.236C112.007 165.168 101.632 167.045 93.6218 167.965L93.7186 168.542Z" fill="url(#paint0_radial_49_229)" fill-opacity="0.58"/>
<defs>
<radialGradient id="paint0_radial_49_229" cx="0" cy="0" r="1" gradientUnits="userSpaceOnUse" gradientTransform="translate(80.166 99.1305) rotate(-87.632) scale(90.969 69.4478)">
<stop stop-color="white"/>
<stop offset="1" stop-color="#1E1E1E" stop-opacity="0"/>
<stop offset="1" stop-color="#0E0E35" stop-opacity="0"/>
<stop offset="1" stop-color="white" stop-opacity="0"/>
</radialGradient>
</defs>
</svg>
